<?xml version="1.0" encoding="UTF-8"?>
<svg width="81px" height="22px" viewBox="0 0 81 22" version="1.1" xmlns="http://www.w3.org/2000/svg" xmlns:xlink="http://www.w3.org/1999/xlink">
    <!-- Generator: Sketch 44.1 (41455) - http://www.bohemiancoding.com/sketch -->
    <title>logo_Polidea</title>
    <desc>Created with Sketch.</desc>
    <defs></defs>
    <g id="Welcome" stroke="none" stroke-width="1" fill="none" fill-rule="evenodd">
        <g id="Desktop_VRmode" transform="translate(-42.000000, -41.000000)" fill-rule="nonzero">
            <g id="Group-2" transform="translate(22.000000, 0.000000)">
                <g id="logo_Polidea" transform="translate(20.000000, 41.000000)">
                    <rect id="Rectangle-path" fill="#1DA0DB" x="0.245780212" y="0.109762881" width="21.84713" height="21.6815567"></rect>
                    <path d="M14.0610859,5.16210764 C13.623051,5.06264349 12.9840224,5.00545839 12.1437272,4.99570169 L6.66965569,4.99678577 L6.66965569,6.10064802 L8.57991412,6.24808261 L8.57991412,9.44150489 L16.1638722,6.64702325 C15.7763587,5.87434677 15.0788891,5.39952068 14.0610859,5.16210764 Z" id="Shape" fill="#FFFFFF"></path>
                    <path d="M16.4825672,7.75711895 L8.57964103,10.6697651 L8.57964103,16.2600835 L6.6693826,16.4080601 L6.6693826,17.437663 L12.7584508,17.437663 L12.7584508,16.3340718 L10.2110755,16.1863662 L10.2110755,12.2500795 L11.5866254,12.2408649 C11.5866254,12.2408649 11.6180306,12.2400518 11.6262233,12.2400518 C12.7092948,12.1823247 13.5476784,12.047899 14.1435589,11.8440924 C15.7012592,11.2939229 16.5868873,10.0672888 16.5238037,8.24739316 C16.5177957,8.0752958 16.5027758,7.91349718 16.4825672,7.75711895 Z" id="Shape" fill="#FFFFFF"></path>
                    <g id="Group" transform="translate(26.762734, 6.504467)" fill="#595A5C">
                        <path d="M0.266808075,11.1917486 L0.266808075,10.0789427 L1.77699093,9.94560109 L1.77699093,2.40773687 L0.266808075,2.27412428 L0.266808075,1.16131838 L4.07940534,1.16131838 C4.9467364,1.16131838 6.11282697,1.20576557 6.74065887,1.36891929 C8.08644207,1.72503886 8.74404068,2.5264434 8.74404068,4.02490999 C8.74404068,5.47892938 8.01134256,6.47302876 6.71061906,6.88850159 C6.03772746,7.09637351 5.2154561,7.15545576 4.39318475,7.15545576 L3.46604717,7.15545576 L3.46604717,9.95996512 L5.2154561,10.0786716 L5.2154561,11.1914775 L0.266808075,11.1914775 L0.266808075,11.1917486 Z M4.40820465,5.76106064 C4.91642351,5.76106064 5.5445285,5.71661345 5.93313432,5.58327187 C6.53119951,5.36049388 6.93482523,4.87076172 6.93482523,4.05472213 C6.93482523,3.46118951 6.65081254,3.01590454 6.12757378,2.79339756 C5.76873467,2.63024385 5.18568939,2.55598452 4.5575844,2.55598452 L3.46604717,2.55598452 L3.46604717,5.76106064 L4.40820465,5.76106064 Z" id="Shape"></path>
                        <path d="M12.9752836,11.4142555 C10.7624424,11.4142555 9.40191239,10.0342244 9.40191239,7.6156468 C9.40191239,4.97456217 10.7774623,3.56498996 13.2592963,3.56498996 C15.6215172,3.56498996 16.7428211,4.8704907 16.7428211,7.30397442 C16.7430942,9.94533007 15.4123309,11.4142555 12.9752836,11.4142555 Z M13.1249364,4.84094958 C11.7343666,4.84094958 11.0915148,5.86459007 11.0915148,7.37823375 C11.0915148,9.48513903 11.8689995,10.1380249 13.0651299,10.1380249 C14.2014538,10.1380249 15.0237251,9.44096285 15.0237251,7.54165849 C15.0237251,5.92421435 14.7096726,4.84094958 13.1249364,4.84094958 Z" id="Shape"></path>
                        <path d="M17.759805,11.1917486 L17.759805,10.0935777 L19.0304887,9.96023614 L19.0304887,1.754851 L17.6399189,1.754851 L17.6399189,0.686763309 C18.6416098,0.404632052 19.7181272,0.211937217 20.6302448,0.211937217 L20.6302448,9.96050716 L21.9457152,10.0938487 L21.9457152,11.1920196 L17.759805,11.1920196 L17.759805,11.1917486 Z" id="Shape"></path>
                        <path d="M23.351578,11.1917486 L23.351578,10.0935777 L24.6670483,9.96023614 L24.6670483,5.1379869 L23.2617316,5.1379869 L23.2617316,4.05472213 C24.203616,3.80240301 25.3399399,3.60943715 26.2520576,3.60943715 L26.2520576,9.96023614 L27.5675279,10.0935777 L27.5675279,11.1917486 L23.351578,11.1917486 L23.351578,11.1917486 Z M25.2053069,2.58579666 C24.7118349,2.58579666 24.2484027,2.33347754 24.2484027,1.60633233 C24.2484027,0.894093195 24.7118349,0.612232958 25.2203268,0.612232958 C25.7736054,0.612232958 26.1772311,0.849646004 26.1772311,1.60633233 C26.176958,2.27412428 25.7736054,2.58579666 25.2053069,2.58579666 Z" id="Shape"></path>
                        <path d="M36.7927516,11.0283238 C35.9855001,11.1917486 34.998556,11.3253612 34.0563986,11.3253612 L33.9518054,10.3461678 C33.3537402,10.9394294 32.5912754,11.3551733 31.6193512,11.3551733 C29.9447687,11.3551733 28.7188716,10.0789427 28.7188716,7.64545894 C28.7188716,4.69270193 30.4680075,3.6392493 32.3667961,3.6392493 C32.8452483,3.6392493 33.4433135,3.69860256 33.8917258,3.89156841 L33.8917258,1.754851 L32.4413495,1.754851 L32.4413495,0.686763309 C33.4583334,0.404632052 34.4747711,0.211937217 35.476462,0.197031147 L35.476462,9.97541323 L36.7922054,9.97541323 L36.7922054,11.0283238 L36.7927516,11.0283238 Z M33.8917258,5.24178736 C33.4583334,5.10844578 32.9798812,5.03391543 32.5612356,5.03391543 C31.2605121,5.03391543 30.4082009,5.74615457 30.4082009,7.52675241 C30.4082009,9.51495117 31.2157255,9.98977726 32.1275701,9.98977726 C32.8004617,9.98977726 33.3086805,9.72282309 33.8917258,9.32198531 L33.8917258,5.24178736 Z" id="Shape"></path>
                        <path d="M41.2329077,11.4142555 C39.0501063,11.4142555 37.8089162,9.85643568 37.8089162,7.60101175 C37.8089162,4.84094958 39.5285584,3.56498996 41.4721337,3.56498996 C43.9837344,3.56498996 44.537013,5.24178736 44.537013,7.05192632 C44.537013,7.1852679 44.5219931,7.43758701 44.4922264,7.67500006 L39.4687519,7.67500006 C39.4687519,7.77880051 39.4687519,8.0460257 39.4837718,8.19427334 C39.6181317,9.32198531 40.3655766,10.0637656 41.5767269,10.0637656 C42.5934377,10.0637656 43.3709224,9.75236421 44.1036206,9.27753812 L44.656626,10.3458968 C43.6101485,11.0283238 42.5934377,11.4142555 41.2329077,11.4142555 Z M42.9672967,6.20607459 C42.9672967,5.43448219 42.5784178,4.78159631 41.442367,4.78159631 C40.5004826,4.78159631 39.6929581,5.36022286 39.5285584,6.51774697 L42.9522768,6.51774697 C42.9672967,6.41394652 42.9672967,6.30987504 42.9672967,6.20607459 Z" id="Shape"></path>
                        <path d="M53.5079907,11.0136888 C52.8651389,11.1622074 51.6840285,11.3107261 50.7719108,11.3107261 L50.6673177,10.3461678 C50.0392127,11.0285948 49.2169413,11.3402672 48.3796501,11.3402672 C46.7498542,11.3402672 46.0174291,10.2125553 46.0174291,9.05503114 C46.0174291,8.09047289 46.5559609,7.45249308 47.4377657,7.17063285 C48.2750569,6.91831373 49.396634,6.78470114 50.5924912,6.75516002 L50.5924912,6.3844054 C50.5924912,5.87976716 50.5627245,5.46429433 50.4280916,5.28623455 C50.248672,5.0488215 49.9794062,4.95992712 49.3816141,4.95992712 C48.8133156,4.95992712 47.8266446,5.07863364 46.8397005,5.36049388 L46.6004744,4.18833472 C47.7215053,3.80267403 49.0823084,3.56526098 49.9195996,3.56526098 C50.8317173,3.56526098 51.5190826,3.78776796 51.8334082,4.30704124 C52.0723612,4.70787902 52.1772274,5.30114062 52.1772274,6.3844054 L52.1772274,9.97514221 L53.5077176,9.97514221 L53.5077176,11.0136888 L53.5079907,11.0136888 Z M50.6072381,7.80888367 C49.9346195,7.83842479 48.9479485,7.91268412 48.3796501,8.10564998 C47.9011979,8.26880369 47.6769917,8.65446438 47.6769917,9.04039609 C47.6769917,9.73772916 48.1554439,10.0640366 48.8433554,10.0640366 C49.4862072,10.0640366 50.129059,9.76727028 50.6075111,9.33689138 L50.6075111,7.80888367 L50.6072381,7.80888367 Z" id="Shape"></path>
                    </g>
                </g>
            </g>
        </g>
    </g>
</svg>