<?xml version="1.0" encoding="UTF-8"?>
<svg width="9px" height="15px" viewBox="0 0 9 15" version="1.1" xmlns="http://www.w3.org/2000/svg" xmlns:xlink="http://www.w3.org/1999/xlink">
    <!-- Generator: Sketch 44.1 (41455) - http://www.bohemiancoding.com/sketch -->
    <title>?</title>
    <desc>Created with Sketch.</desc>
    <defs></defs>
    <g id="Welcome" stroke="none" stroke-width="1" fill="none" fill-rule="evenodd">
        <g id="Desktop_VRmode" transform="translate(-964.000000, -48.000000)" fill="#FFFFFF">
            <path d="M967.626953,58.0292969 C967.626953,57.2067016 967.729003,56.5511092 967.933105,56.0625 C968.137208,55.5738908 968.540768,55.0373564 969.143799,54.4528809 C969.746829,53.8684053 970.128743,53.4524752 970.289551,53.2050781 C970.536948,52.8277976 970.660645,52.4195985 970.660645,51.9804688 C970.660645,51.3990856 970.516847,50.9553238 970.229248,50.6491699 C969.941649,50.343016 969.519534,50.1899414 968.962891,50.1899414 C968.430987,50.1899414 968.002687,50.3399236 967.677979,50.6398926 C967.35327,50.9398615 967.190918,51.3465144 967.190918,51.8598633 L964.936523,51.8598633 C964.948893,50.7651312 965.32153,49.8992545 966.054443,49.262207 C966.787357,48.6251596 967.75683,48.3066406 968.962891,48.3066406 C970.206061,48.3066406 971.175534,48.6220672 971.871338,49.2529297 C972.567142,49.8837922 972.915039,50.7651311 972.915039,51.8969727 C972.915039,52.9051157 972.444992,53.8977816 971.504883,54.875 L970.36377,55.9975586 C969.955564,56.4614281 969.74528,57.1386674 969.73291,58.0292969 L967.626953,58.0292969 Z M967.469238,60.9145508 C967.469238,60.5496401 967.583658,60.2543143 967.8125,60.0285645 C968.041342,59.8028146 968.350584,59.6899414 968.740234,59.6899414 C969.13607,59.6899414 969.448404,59.805907 969.677246,60.0378418 C969.906088,60.2697766 970.020508,60.56201 970.020508,60.9145508 C970.020508,61.2547218 969.909181,61.5392241 969.686523,61.7680664 C969.463866,61.9969087 969.14844,62.1113281 968.740234,62.1113281 C968.332029,62.1113281 968.018149,61.9969087 967.798584,61.7680664 C967.579019,61.5392241 967.469238,61.2547218 967.469238,60.9145508 Z" id="?"></path>
        </g>
    </g>
</svg>