# MagicaVoxel @ Ephtracy

# material
mtllib neon_plane.mtl
usemtl palette

# normals
vn -1 0 0
vn 1 0 0
vn 0 0 1
vn 0 0 -1
vn 0 -1 0
vn 0 1 0

# texcoords
vt 0.958984 0.5
vt 0.962891 0.5

# verts
v -50 0 25
v -50 0 -25
v -50 1 25
v -50 1 -25
v -48 1 18
v -48 1 17
v -48 2 18
v -48 2 17
v -38 1 25
v -38 1 18
v -38 2 25
v -38 2 18
v 37 1 25
v 37 1 14
v 37 2 25
v 37 2 14
v -37 1 25
v -37 1 17
v -37 2 25
v -37 2 17
v 38 1 25
v 38 1 14
v 38 2 25
v 38 2 14
v 50 0 25
v 50 0 -25
v 50 1 25
v 50 1 -25
v -50 0 25
v -50 1 25
v -38 1 25
v -38 2 25
v -37 1 25
v -37 2 25
v 37 1 25
v 37 2 25
v 38 1 25
v 38 2 25
v 50 0 25
v 50 1 25
v -48 1 18
v -48 2 18
v -38 1 18
v -38 2 18
v -48 1 17
v -48 2 17
v -37 1 17
v -37 2 17
v 37 1 14
v 37 2 14
v 38 1 14
v 38 2 14
v -50 0 -25
v -50 1 -25
v 50 0 -25
v 50 1 -25
v -50 0 25
v 50 0 25
v -50 0 -25
v 50 0 -25
v -50 1 25
v -38 1 25
v -37 1 25
v 37 1 25
v 38 1 25
v 50 1 25
v -48 1 18
v -38 1 18
v -48 1 17
v -37 1 17
v 37 1 14
v 38 1 14
v -50 1 -25
v 50 1 -25
v -38 2 25
v -37 2 25
v 37 2 25
v 38 2 25
v -48 2 18
v -38 2 18
v -48 2 17
v -37 2 17
v 37 2 14
v 38 2 14

# faces
f 3/1/1 2/1/1 1/1/1
f 4/1/1 2/1/1 3/1/1
f 7/2/1 6/2/1 5/2/1
f 8/2/1 6/2/1 7/2/1
f 11/2/1 10/2/1 9/2/1
f 12/2/1 10/2/1 11/2/1
f 15/2/1 14/2/1 13/2/1
f 16/2/1 14/2/1 15/2/1
f 17/2/2 18/2/2 19/2/2
f 19/2/2 18/2/2 20/2/2
f 21/2/2 22/2/2 23/2/2
f 23/2/2 22/2/2 24/2/2
f 25/1/2 26/1/2 27/1/2
f 27/1/2 26/1/2 28/1/2
f 31/1/3 30/1/3 29/1/3
f 33/1/3 31/1/3 29/1/3
f 33/2/3 32/2/3 31/2/3
f 34/2/3 32/2/3 33/2/3
f 35/1/3 33/1/3 29/1/3
f 37/1/3 35/1/3 29/1/3
f 37/2/3 36/2/3 35/2/3
f 38/2/3 36/2/3 37/2/3
f 39/1/3 37/1/3 29/1/3
f 40/1/3 37/1/3 39/1/3
f 43/2/3 42/2/3 41/2/3
f 44/2/3 42/2/3 43/2/3
f 45/2/4 46/2/4 47/2/4
f 47/2/4 46/2/4 48/2/4
f 49/2/4 50/2/4 51/2/4
f 51/2/4 50/2/4 52/2/4
f 53/1/4 54/1/4 55/1/4
f 55/1/4 54/1/4 56/1/4
f 59/1/5 58/1/5 57/1/5
f 60/1/5 58/1/5 59/1/5
f 61/1/6 62/1/6 67/1/6
f 67/1/6 62/1/6 68/1/6
f 61/1/6 67/1/6 69/1/6
f 63/1/6 64/1/6 70/1/6
f 70/1/6 64/1/6 71/1/6
f 69/1/6 70/1/6 71/1/6
f 65/1/6 66/1/6 72/1/6
f 69/1/6 71/1/6 73/1/6
f 71/1/6 72/1/6 73/1/6
f 61/1/6 69/1/6 73/1/6
f 72/1/6 66/1/6 74/1/6
f 73/1/6 72/1/6 74/1/6
f 75/2/6 76/2/6 80/2/6
f 79/2/6 80/2/6 81/2/6
f 80/2/6 76/2/6 82/2/6
f 81/2/6 80/2/6 82/2/6
f 77/2/6 78/2/6 83/2/6
f 83/2/6 78/2/6 84/2/6
